<?xml version="1.0" encoding="UTF-8" standalone="no"?>
<!-- Created with Inkscape (http://www.inkscape.org/) -->

<svg
   xmlns:dc="http://purl.org/dc/elements/1.1/"
   xmlns:cc="http://creativecommons.org/ns#"
   xmlns:rdf="http://www.w3.org/1999/02/22-rdf-syntax-ns#"
   xmlns:svg="http://www.w3.org/2000/svg"
   xmlns="http://www.w3.org/2000/svg"
   xmlns:xlink="http://www.w3.org/1999/xlink"
   xmlns:sodipodi="http://sodipodi.sourceforge.net/DTD/sodipodi-0.dtd"
   xmlns:inkscape="http://www.inkscape.org/namespaces/inkscape"
   width="300"
   height="181"
   viewBox="0 0 79.374999 47.889585"
   version="1.1"
   id="svg8"
   inkscape:export-filename="C:\Users\Gabriel\Documents\PROJETOS\oficina\img\logo-cm-01.png"
   inkscape:export-xdpi="43"
   inkscape:export-ydpi="43"
   inkscape:version="0.92.4 (5da689c313, 2019-01-14)"
   sodipodi:docname="desenhando.svg">
  <defs
     id="defs2">
    <linearGradient
       inkscape:collect="always"
       id="linearGradient867">
      <stop
         style="stop-color:#800000;stop-opacity:1;"
         offset="0"
         id="stop863" />
      <stop
         style="stop-color:#800000;stop-opacity:0"
         offset="1"
         id="stop865" />
    </linearGradient>
    <linearGradient
       inkscape:collect="always"
       xlink:href="#linearGradient867"
       id="linearGradient869"
       x1="79.512688"
       y1="135.72955"
       x2="69.971169"
       y2="185.30806"
       gradientUnits="userSpaceOnUse"
       gradientTransform="matrix(0.44672157,0,0,0.44672157,-4.5707708,196.71611)" />
    <linearGradient
       inkscape:collect="always"
       xlink:href="#linearGradient867"
       id="linearGradient874"
       gradientUnits="userSpaceOnUse"
       gradientTransform="matrix(0.44672157,0,0,0.44672157,-4.5707708,196.71611)"
       x1="79.512688"
       y1="135.72955"
       x2="69.971169"
       y2="185.30806" />
  </defs>
  <sodipodi:namedview
     id="base"
     pagecolor="#ffffff"
     bordercolor="#666666"
     borderopacity="1.0"
     inkscape:pageopacity="0.0"
     inkscape:pageshadow="2"
     inkscape:zoom="2"
     inkscape:cx="117.1785"
     inkscape:cy="110.6115"
     inkscape:document-units="mm"
     inkscape:current-layer="layer1"
     showgrid="false"
     inkscape:pagecheckerboard="true"
     showborder="true"
     inkscape:showpageshadow="false"
     units="px"
     inkscape:window-width="1600"
     inkscape:window-height="877"
     inkscape:window-x="-8"
     inkscape:window-y="-8"
     inkscape:window-maximized="1" />
  <metadata
     id="metadata5">
    <rdf:RDF>
      <cc:Work
         rdf:about="">
        <dc:format>image/svg+xml</dc:format>
        <dc:type
           rdf:resource="http://purl.org/dc/dcmitype/StillImage" />
        <dc:title></dc:title>
      </cc:Work>
    </rdf:RDF>
  </metadata>
  <g
     inkscape:label="Camada 1"
     inkscape:groupmode="layer"
     id="layer1"
     transform="translate(0,-249.11041)">
    <g
       id="g872"
       transform="translate(-0.396875,0.396875)">
      <path
         sodipodi:nodetypes="ccccccccccccccccccccccccccssccccccccccccccccccccccccccccccccssccccccccccccccccccccccccccccccccccccccscccccssssscscssccccsccccccccccccccccccccccccccccccccccccsscsscsscccccccc"
         inkscape:connector-curvature="0"
         id="path839"
         d="m 28.441964,281.45529 0.05969,-8.41735 -23.04325,-0.23879 -2.0110602,-0.14178 -0.057646,-0.0167 -0.041518,-0.02 -0.9883075,-0.61626 -0.056107,-0.0464 -0.04955,-0.0426 -0.8286391,-0.99437 -0.022869,-0.0348 -0.027796,-0.0453 -0.49807025,-0.99615 -0.0111806,-0.0303 -0.008564,-0.0368 -0.10845327,-0.86763 -0.002583,-0.0441 -0.003865,-0.0505 -0.0295916,-12.27999 0.0115854,-0.0773 0.0136948,-0.0585 0.0923733,-0.28013 0.0799701,-0.24254 0.19025942,-0.50935 0.3054164,-0.74966 0.030836,-0.0524 c 0.011908,-0.0137 0.016052,-0.0313 0.028274,-0.0449 0.2022433,-0.224 0.4460251,-0.41959 0.6801798,-0.61577 0.1632153,-0.13675 0.5074285,-0.38803 0.5074285,-0.38803 l 0.7408704,-0.39894 0.044521,-0.019 0.054458,-0.0132 0.7728075,-0.17907 0.5543834,-0.1119 0.1054194,-0.0164 0.073458,-0.006 18.0760591,0.5917 0.08599,0.007 0.08259,0.0186 0.487865,0.1366 0.05755,0.0174 0.06123,0.0232 0.566546,0.24137 0.08694,0.0441 v 0 l 0.640014,0.41412 0.0374,0.037 0.03744,0.034 0.398686,0.54023 0.0973,0.14123 0.186658,0.28758 0.17445,0.24299 0.03462,0.0563 0.01886,0.0368 0.136849,0.31019 0.168851,0.34825 0.133378,0.29532 0.01345,0.0401 0.0098,0.0404 0.07557,0.41564 c 0,0 -0.01055,0.42212 -0.01055,0.47489 0,0.0399 -0.01206,0.2122 -0.01791,0.29412 -0.0017,0.0265 -0.01287,0.0435 -0.01287,0.0435 l -0.01367,0.0184 -0.118354,0.0935 -0.0627,0.0288 -0.0535,0.0164 -18.1150703,-0.43131 -0.1266382,10.32097 20.1986975,0.42212 0.08443,-14.47889 4.770017,-0.0212 10.152118,10.91194 9.160116,-9.87773 0.316596,-6.07861 4.510964,-0.0412 0.124362,0.004 0.11587,0.0164 0.749226,0.12487 0.132337,0.0328 0.09504,0.0289 0.751825,0.31953 1.688497,0.73871 1.81883,0.89941 0.105537,0.0633 0.101534,0.0599 1.541068,1.06689 2.217848,1.51965 0.05886,0.0432 0.05074,0.0414 1.893752,1.66732 1.920672,1.94178 2.047309,2.49054 1.393018,1.77292 1.519644,2.59607 1.477437,3.06041 0.823145,2.42722 0.717617,2.87045 0.590973,2.97599 0.274382,3.46142 v 2.55386 c 0,0.0844 -0.211063,3.77802 -0.211063,3.77802 l -0.31659,2.3428 -0.464346,3.22926 -0.688,2.52941 -0.03223,0.0906 c 0,0 -0.02173,0.0399 -0.04172,0.0783 -0.152912,0.29358 -0.802856,1.56812 -0.842118,1.67068 -0.0083,0.0218 -0.04485,0.0681 -0.09165,0.13052 -0.04614,0.0613 -0.09374,0.13967 -0.15304,0.22065 -0.152646,0.20856 -0.31079,0.44571 -0.346312,0.49308 -0.06326,0.0844 -0.464336,0.40101 -0.464336,0.40101 0,0 0.03767,-1.63161 0.104044,-2.04714 0.0064,-0.0423 9.22e-4,-0.0735 0.0092,-0.0872 0.0064,-0.0117 0.0064,-0.0556 0.0151,-0.0931 0.08371,-0.37616 0.242911,-1.94192 0.285692,-2.37922 0.0073,-0.072 0.0083,-0.12112 0.0083,-0.12112 l -0.02109,-2.97599 0.06336,-2.25837 -0.126636,-3.08153 c 0,0 -0.168854,-1.89955 -0.168854,-2.00508 0,-0.10554 -0.316591,-2.40612 -0.316591,-2.40612 l -0.780927,-3.7147 -0.802045,-2.44833 -1.411596,-3.48749 -0.02827,-0.0584 -0.02459,-0.0497 -1.321604,-2.25085 -1.245263,-1.83624 -1.857354,-2.19506 -1.836246,-1.64628 -1.709599,-1.39302 -1.962891,-1.30858 -2.30432,-1.37451 -0.09657,-0.0424 -0.130044,-0.0588 -1.428586,-0.46439 -0.515,-0.17042 -0.189955,17.37043 -5.424308,-0.0422 -0.02108,-12.60044 -0.232171,-0.0211 -8.97016,9.28676 -0.295488,-0.0422 -9.666671,-9.64556 -0.147744,7.4716 4.628107,0.1453 0.04463,0.0234 0.05116,0.0422 0.09337,0.34232 0.0082,0.0576 0.0066,0.0616 -0.01899,0.9677 -0.0056,0.0438 -0.008,0.0455 -0.386455,1.24862 -0.0206,0.0499 c 0,0 -0.01125,0.0291 -0.02185,0.0502 -0.06407,0.1278 -0.286465,0.57558 -0.371525,0.73071 -0.0087,0.016 -0.02891,0.0403 -0.03404,0.0488 -0.0073,0.0122 -0.02011,0.0346 -0.04146,0.0597 -0.130313,0.15328 -0.485465,0.50997 -0.633004,0.63692 -0.0361,0.031 -0.06692,0.0477 -0.06692,0.0477 0,0 -0.0524,0.0302 -0.135316,0.044 -0.188947,0.0314 -0.507637,0.0831 -0.566315,0.0831 -0.08443,0 -2.522091,-0.0224 -2.522091,-0.0224 v 8.25254 l -0.112574,0.19277 -0.02988,0.028 -0.04869,0.0274 -0.305383,0.0809 -4.398543,-0.0181 z"
         style="fill:url(#linearGradient874);fill-opacity:1;stroke:none;stroke-width:0.11819508px;stroke-linecap:butt;stroke-linejoin:miter;stroke-opacity:1" />
    </g>
  </g>
</svg>
