<?xml version="1.0" encoding="UTF-8" standalone="no"?>
<!-- Created with Inkscape (http://www.inkscape.org/) -->

<svg
   xmlns:dc="http://purl.org/dc/elements/1.1/"
   xmlns:cc="http://creativecommons.org/ns#"
   xmlns:rdf="http://www.w3.org/1999/02/22-rdf-syntax-ns#"
   xmlns:svg="http://www.w3.org/2000/svg"
   xmlns="http://www.w3.org/2000/svg"
   xmlns:sodipodi="http://sodipodi.sourceforge.net/DTD/sodipodi-0.dtd"
   xmlns:inkscape="http://www.inkscape.org/namespaces/inkscape"
   version="1.1"
   id="svg10"
   width="508"
   height="686"
   viewBox="0 0 508 686"
   sodipodi:docname="frente.svg"
   inkscape:export-filename="C:\Users\Gabriel\Documents\PROJETOS\oficina\img\frente.png"
   inkscape:export-xdpi="25"
   inkscape:export-ydpi="25"
   inkscape:version="0.92.4 (5da689c313, 2019-01-14)">
  <metadata
     id="metadata16">
    <rdf:RDF>
      <cc:Work
         rdf:about="">
        <dc:format>image/svg+xml</dc:format>
        <dc:type
           rdf:resource="http://purl.org/dc/dcmitype/StillImage" />
        <dc:title></dc:title>
      </cc:Work>
    </rdf:RDF>
  </metadata>
  <defs
     id="defs14" />
  <sodipodi:namedview
     pagecolor="#ffffff"
     bordercolor="#666666"
     borderopacity="1"
     objecttolerance="10"
     gridtolerance="10"
     guidetolerance="10"
     inkscape:pageopacity="0"
     inkscape:pageshadow="2"
     inkscape:window-width="1600"
     inkscape:window-height="877"
     id="namedview12"
     showgrid="false"
     inkscape:snap-bbox="false"
     inkscape:bbox-nodes="true"
     inkscape:pagecheckerboard="true"
     inkscape:zoom="0.70710678"
     inkscape:cx="41.470933"
     inkscape:cy="417.4752"
     inkscape:window-x="-8"
     inkscape:window-y="-8"
     inkscape:window-maximized="1"
     inkscape:current-layer="svg10" />
  <path
     style="fill:none;stroke:#000000;stroke-width:1px;stroke-linecap:butt;stroke-linejoin:miter;stroke-opacity:1"
     d="m 113.86588,452.34981 h 209.10781 v 15.61339 h 10.40892 V 436.92231 H 312.37889 V 258.48364 H 510.89191 V 1.2345711 H 114.99453 V 689.74887 h 185.8602 V 480.41673 l 32.34201,-12.63941"
     id="path20"
     inkscape:connector-curvature="0" />
  <path
     style="fill:none;stroke:#666666;stroke-width:1px;stroke-linecap:butt;stroke-linejoin:miter;stroke-opacity:1"
     d="M 312.56477,300.58402 H 450.29711 V 662.75874 H 300.85473"
     id="path22"
     inkscape:connector-curvature="0" />
  <path
     style="fill:none;stroke:#666666;stroke-width:1px;stroke-linecap:butt;stroke-linejoin:miter;stroke-opacity:1"
     d="M 342.89851,662.67378 V 507.32058 H 300.84007"
     id="path24"
     inkscape:connector-curvature="0" />
  <path
     style="fill:none;stroke:#666666;stroke-width:1px;stroke-linecap:butt;stroke-linejoin:miter;stroke-opacity:1"
     d="m 342.89851,507.32058 34.961,-0.78859 v 155.87893"
     id="path26"
     inkscape:connector-curvature="0" />
  <path
     style="fill:none;stroke:#666666;stroke-width:1px;stroke-linecap:butt;stroke-linejoin:miter;stroke-opacity:1"
     d="m 377.85951,506.53199 34.961,-0.78859 v 155.87894"
     id="path26-7"
     inkscape:connector-curvature="0" />
  <path
     style="fill:none;stroke:#666666;stroke-width:1px;stroke-linecap:butt;stroke-linejoin:miter;stroke-opacity:1"
     d="m 412.82051,505.7434 h 37.4766"
     id="path58"
     inkscape:connector-curvature="0" />
  <path
     style="fill:none;stroke:#666666;stroke-width:1px;stroke-linecap:butt;stroke-linejoin:miter;stroke-opacity:1"
     d="M 377.85951,506.53199 V 350.65305 l -34.961,0.78859 v 155.61607"
     id="path26-5"
     inkscape:connector-curvature="0" />
  <path
     style="fill:none;stroke:#666666;stroke-width:1px;stroke-linecap:butt;stroke-linejoin:miter;stroke-opacity:1"
     d="M 412.82051,505.74341 V 349.86446 l -34.961,0.78859 v 155.87894"
     id="path26-5-7"
     inkscape:connector-curvature="0"
     sodipodi:nodetypes="cccc" />
  <path
     style="fill:none;stroke:#666666;stroke-width:1px;stroke-linecap:butt;stroke-linejoin:miter;stroke-opacity:1"
     d="m 412.82051,349.86446 h 37.3269"
     id="path96"
     inkscape:connector-curvature="0" />
  <path
     style="fill:none;stroke:#666666;stroke-width:1.00288606px;stroke-linecap:butt;stroke-linejoin:miter;stroke-opacity:1"
     d="M 312.669,313.85196 H 449.88451"
     id="path98"
     inkscape:connector-curvature="0" />
  <path
     style="fill:none;stroke:#666666;stroke-width:1px;stroke-linecap:butt;stroke-linejoin:miter;stroke-opacity:1"
     d="m 342.89851,351.44164 h -30.2408"
     id="path100"
     inkscape:connector-curvature="0" />
  <path
     style="fill:none;stroke:#666666;stroke-width:1px;stroke-linecap:butt;stroke-linejoin:miter;stroke-opacity:1"
     d="m 321.76551,314.05985 v 37.45353"
     id="path102"
     inkscape:connector-curvature="0" />
  <path
     style="fill:none;stroke:#666666;stroke-width:1px;stroke-linecap:butt;stroke-linejoin:miter;stroke-opacity:1"
     d="m 330.68745,313.6881 v 37.73235"
     id="path104"
     inkscape:connector-curvature="0" />
  <path
     style="fill:none;stroke:#666666;stroke-width:1px;stroke-linecap:butt;stroke-linejoin:miter;stroke-opacity:1"
     d="m 339.42351,313.87398 v 37.6394"
     id="path106"
     inkscape:connector-curvature="0" />
  <path
     style="fill:none;stroke:#666666;stroke-width:1px;stroke-linecap:butt;stroke-linejoin:miter;stroke-opacity:1"
     d="M 348.62421,351.0487 V 314.33866"
     id="path108"
     inkscape:connector-curvature="0" />
  <path
     style="fill:none;stroke:#666666;stroke-width:1px;stroke-linecap:butt;stroke-linejoin:miter;stroke-opacity:1"
     d="m 356.05921,313.6881 v 37.26766"
     id="path110"
     inkscape:connector-curvature="0" />
  <path
     style="fill:none;stroke:#666666;stroke-width:1px;stroke-linecap:butt;stroke-linejoin:miter;stroke-opacity:1"
     d="m 365.16701,314.15279 v 36.43123"
     id="path112"
     inkscape:connector-curvature="0" />
  <path
     style="fill:none;stroke:#666666;stroke-width:1px;stroke-linecap:butt;stroke-linejoin:miter;stroke-opacity:1"
     d="m 373.71721,314.24573 v 36.52416"
     id="path114"
     inkscape:connector-curvature="0" />
  <path
     style="fill:none;stroke:#666666;stroke-width:1px;stroke-linecap:butt;stroke-linejoin:miter;stroke-opacity:1"
     d="m 382.45321,313.96691 v 36.80298"
     id="path116"
     inkscape:connector-curvature="0" />
  <path
     style="fill:none;stroke:#666666;stroke-width:1px;stroke-linecap:butt;stroke-linejoin:miter;stroke-opacity:1"
     d="m 390.07401,350.67695 v -36.6171"
     id="path118"
     inkscape:connector-curvature="0" />
  <path
     style="fill:none;stroke:#666666;stroke-width:1px;stroke-linecap:butt;stroke-linejoin:miter;stroke-opacity:1"
     d="M 397.60191,314.05985 V 350.3052"
     id="path120"
     inkscape:connector-curvature="0" />
  <path
     style="fill:none;stroke:#666666;stroke-width:1px;stroke-linecap:butt;stroke-linejoin:miter;stroke-opacity:1"
     d="m 412.82051,349.86446 v -35.5258"
     id="path122"
     inkscape:connector-curvature="0" />
  <path
     style="fill:none;stroke:#666666;stroke-width:1px;stroke-linecap:butt;stroke-linejoin:miter;stroke-opacity:1"
     d="m 404.94391,314.15279 v 35.78067"
     id="path124"
     inkscape:connector-curvature="0" />
  <path
     style="fill:none;stroke:#666666;stroke-width:1px;stroke-linecap:butt;stroke-linejoin:miter;stroke-opacity:1"
     d="m 421.20791,314.15279 v 35.59479"
     id="path126"
     inkscape:connector-curvature="0" />
  <path
     style="fill:none;stroke:#666666;stroke-width:1px;stroke-linecap:butt;stroke-linejoin:miter;stroke-opacity:1"
     d="M 428.64281,349.84052 V 314.4316"
     id="path128"
     inkscape:connector-curvature="0" />
  <path
     style="fill:none;stroke:#666666;stroke-width:1px;stroke-linecap:butt;stroke-linejoin:miter;stroke-opacity:1"
     d="m 436.35661,313.87398 v 35.8736"
     id="path130"
     inkscape:connector-curvature="0" />
  <path
     style="fill:none;stroke:#666666;stroke-width:1px;stroke-linecap:butt;stroke-linejoin:miter;stroke-opacity:1"
     d="m 443.69861,314.15279 v 35.50186"
     id="path132"
     inkscape:connector-curvature="0" />
  <path
     style="fill:none;stroke:#666666;stroke-width:1px;stroke-linecap:butt;stroke-linejoin:miter;stroke-opacity:1"
     d="m 343.16131,581.71137 h 34.4353 v 5.78303 h -34.5667"
     id="path134"
     inkscape:connector-curvature="0" />
  <path
     style="fill:none;stroke:#666666;stroke-width:1px;stroke-linecap:butt;stroke-linejoin:miter;stroke-opacity:1"
     d="m 377.59661,581.71137 h 34.4353 v 5.78303 h -34.5667"
     id="path134-1"
     inkscape:connector-curvature="0" />
  <path
     style="fill:none;stroke:#666666;stroke-width:1.03825748px;stroke-linecap:butt;stroke-linejoin:miter;stroke-opacity:1"
     d="m 413.01051,581.66033 h 37.31 v 5.75367 h -37.4524"
     id="path134-8"
     inkscape:connector-curvature="0" />
  <path
     style="fill:none;stroke:#666666;stroke-width:1px;stroke-linecap:butt;stroke-linejoin:miter;stroke-opacity:1"
     d="m 343.26591,425.49704 h 34.4354 v 5.78303 h -34.5667"
     id="path134-6"
     inkscape:connector-curvature="0" />
  <path
     style="fill:none;stroke:#666666;stroke-width:1px;stroke-linecap:butt;stroke-linejoin:miter;stroke-opacity:1"
     d="m 377.70131,425.49704 h 34.4353 v 5.78303 h -34.5667"
     id="path134-1-1"
     inkscape:connector-curvature="0" />
  <path
     style="fill:none;stroke:#666666;stroke-width:1.03825748px;stroke-linecap:butt;stroke-linejoin:miter;stroke-opacity:1"
     d="m 413.11521,425.446 37.1474,-0.0232 -0.047,5.73043 -37.2433,0.0465"
     id="path134-8-4"
     inkscape:connector-curvature="0"
     sodipodi:nodetypes="cccc" />
  <path
     style="fill:none;stroke:#000000;stroke-width:1px;stroke-linecap:butt;stroke-linejoin:miter;stroke-opacity:1"
     d="M 270.55733,689.33866 V 503.65093 h -65.42751 v 186.24535"
     id="path178"
     inkscape:connector-curvature="0" />
  <path
     style="fill:none;stroke:#000000;stroke-width:1px;stroke-linecap:butt;stroke-linejoin:miter;stroke-opacity:1"
     d="m 115.12597,554.76771 h 90.03125 V 551.4819 H 115.2574"
     id="path190"
     inkscape:connector-curvature="0" />
  <path
     style="fill:#ff0000;stroke:#000000;stroke-width:1px;stroke-linecap:butt;stroke-linejoin:miter;stroke-opacity:1"
     d="m 115.09857,506.93674 h 90.03125 v -3.28581 H 115.23"
     id="path190-5"
     inkscape:connector-curvature="0" />
  <path
     style="fill:none;stroke:#000000;stroke-width:1px;stroke-linecap:butt;stroke-linejoin:miter;stroke-opacity:1"
     d="M 300.57721,550.56187 H 273.50212 V 501.01182"
     id="path207"
     inkscape:connector-curvature="0" />
  <path
     style="fill:none;stroke:#000000;stroke-width:1px;stroke-linecap:butt;stroke-linejoin:miter;stroke-opacity:1"
     d="m 273.50212,501.01182 h -68.74404 v 2.82498"
     id="path209"
     inkscape:connector-curvature="0" />
  <path
     style="fill:none;stroke:#000000;stroke-width:1px;stroke-linecap:butt;stroke-linejoin:miter;stroke-opacity:1"
     d="m 270.74203,554.50484 h 29.96661"
     id="path211"
     inkscape:connector-curvature="0" />
  <path
     style="fill:none;stroke:#000000;stroke-width:1px;stroke-linecap:butt;stroke-linejoin:miter;stroke-opacity:1"
     d="m 450.29711,300.58402 60.5948,-42.10038"
     id="path213"
     inkscape:connector-curvature="0" />
  <path
     style="fill:none;stroke:#000000;stroke-width:0.99895757px;stroke-linecap:butt;stroke-linejoin:miter;stroke-opacity:1"
     d="m 461.18181,293.24744 v 393.34815 l -160.39262,3.1536"
     id="path215"
     inkscape:connector-curvature="0" />
  <path
     style="fill:none;stroke:#000000;stroke-width:1px;stroke-linecap:butt;stroke-linejoin:miter;stroke-opacity:1"
     d="m 500.60831,95.270191 -188.22941,0.0164 v 68.029739 h 187.73231 v -61.71004 -6.319699"
     id="path217"
     inkscape:connector-curvature="0"
     sodipodi:nodetypes="cccccc" />
  <path
     style="fill:none;stroke:none;stroke-width:1px;stroke-linecap:butt;stroke-linejoin:miter;stroke-opacity:1"
     d="M 291.56105,64.059851 H 145.4644 v 96.654279 h 146.84015"
     id="path219"
     inkscape:connector-curvature="0"
     sodipodi:nodetypes="cccc" />
  <path
     style="fill:none;stroke:none;stroke-width:1px;stroke-linecap:butt;stroke-linejoin:miter;stroke-opacity:1"
     d="M 291.56105,64.059851 V 160.60168"
     id="path244"
     inkscape:connector-curvature="0" />
  <path
     style="fill:none;stroke:none;stroke-width:1px;stroke-linecap:butt;stroke-linejoin:miter;stroke-opacity:1"
     d="m 253.26151,64.393101 v 95.682849 h 2.333 V 64.524541 Z"
     id="path246"
     inkscape:connector-curvature="0" />
  <path
     style="fill:none;stroke:none;stroke-width:1px;stroke-linecap:butt;stroke-linejoin:miter;stroke-opacity:1"
     d="M 216.60824,64.670451 V 160.3533 h 2.333 V 64.801891 Z"
     id="path246-5"
     inkscape:connector-curvature="0" />
  <path
     style="fill:none;stroke:none;stroke-width:1px;stroke-linecap:butt;stroke-linejoin:miter;stroke-opacity:1"
     d="m 179.28141,64.670441 v 95.682849 h 2.333 V 64.801881 Z"
     id="path246-9"
     inkscape:connector-curvature="0" />
  <path
     style="fill:none;stroke:none;stroke-width:1.22918785px;stroke-linecap:butt;stroke-linejoin:miter;stroke-opacity:1"
     d="M 290.84296,91.104771 H 146.27548 v 2.333 h 144.36889 z"
     id="path246-0"
     inkscape:connector-curvature="0" />
  <path
     style="fill:none;stroke:none;stroke-width:1.23541152px;stroke-linecap:butt;stroke-linejoin:miter;stroke-opacity:1"
     d="M 291.44512,125.78846 H 145.20087 v 2.333 h 146.22951 z"
     id="path246-0-9"
     inkscape:connector-curvature="0"
     sodipodi:nodetypes="ccccc" />
  <path
     style="fill:none;stroke:#000000;stroke-width:1px;stroke-linecap:butt;stroke-linejoin:miter;stroke-opacity:1"
     d="m 300.85473,480.41673 v -3.98278 l 22.11896,-8.47075"
     id="path290"
     inkscape:connector-curvature="0" />
  <path
     style="opacity:1;fill:#ff0000;fill-opacity:1;stroke:none;stroke-width:0.2330855;stroke-linejoin:round;stroke-miterlimit:4;stroke-dasharray:none;stroke-opacity:1"
     d="m 271.22705,528.51786 v -25.37175 h -32.89963 -32.89963 v -0.74349 -0.7435 h 33.73606 33.73606 v 24.72119 24.72119 h 13.66171 13.66171 v 1.39406 1.39405 h -14.49814 -14.49814 z"
     id="path300"
     inkscape:connector-curvature="0" />
  <path
     style="opacity:1;fill:#ff0000;fill-opacity:1;stroke:none;stroke-width:0.16481633;stroke-linejoin:round;stroke-miterlimit:4;stroke-dasharray:none;stroke-opacity:1"
     d="m 115.57467,553.14978 v -1.11718 h 44.4899 44.48989 v 1.11718 1.11718 h -44.48989 -44.4899 z"
     id="path302"
     inkscape:connector-curvature="0" />
  <path
     style="opacity:1;fill:#502d16;fill-opacity:1;stroke:none;stroke-width:0.2330855;stroke-linejoin:round;stroke-miterlimit:4;stroke-dasharray:none;stroke-opacity:1"
     d="m 145.33373,147.82407 c 0,-10.65676 -0.0634,-16.17101 -0.18588,-16.17101 -0.11087,0 -0.18587,-0.71251 -0.18587,-1.7658 0,-1.05328 0.075,-1.7658 0.18587,-1.7658 0.12317,0 0.18588,-10.37794 0.18588,-30.762079 v -30.76208 h 73.04832 c 72.68597,0 73.05017,0.002 73.41834,0.37001 0.36728,0.36728 0.37036,0.72618 0.41822,48.698889 l 0.0482,48.32888 h -73.46654 l -73.46654,-1e-5 z m 33.73606,-0.37175 V 131.746 l -16.49629,-0.0475 -16.49628,-0.0475 v 15.80127 15.80127 l 16.49628,-0.0475 16.49629,-0.0475 z m 37.26766,0 v -15.79926 h -17.00744 -17.00743 v 15.79926 15.79926 h 17.00743 17.00744 z m 36.75755,-0.0465 0.0475,-15.75279 h -16.82261 -16.82261 v 15.80025 15.80024 l 16.77509,-0.0475 16.77509,-0.0475 z m 38.33538,0.0465 v -15.79926 h -17.56505 -17.56506 v 15.79926 15.79926 h 17.56506 17.56505 z m -110.03717,-0.18587 v -15.61339 h -0.7435 -0.74349 v 15.61339 15.61338 h 0.74349 0.7435 z m 37.36059,0 v -15.61339 h -0.74349 -0.7435 v 15.61339 15.61338 h 0.7435 0.74349 z m 36.6171,-0.18588 v -15.42751 h -0.74349 -0.7435 v 15.42751 15.42751 h 0.7435 0.74349 z m -76.30111,-17.19331 v -0.55762 l -16.49629,-0.0475 -16.49628,-0.0475 v 0.65256 0.65257 l 16.49628,-0.0475 16.49629,-0.0475 z m 2.32342,0 c 0,-0.63507 -0.0177,-0.65055 -0.7435,-0.65055 -0.72579,0 -0.74349,0.0155 -0.74349,0.65055 0,0.63507 0.0177,0.65056 0.74349,0.65056 0.72579,0 0.7435,-0.0155 0.7435,-0.65056 z m 34.94424,0 v -0.65055 h -17.00744 -17.00743 v 0.65055 0.65056 h 17.00743 17.00744 z m 2.41635,0 c 0,-0.63507 -0.0177,-0.65055 -0.74349,-0.65055 -0.72579,0 -0.7435,0.0155 -0.7435,0.65055 0,0.63507 0.0177,0.65056 0.7435,0.65056 0.72579,0 0.74349,-0.0155 0.74349,-0.65056 z m 34.29368,0 v -0.55762 l -16.77509,-0.0474 -16.77509,-0.0475 v 0.65253 0.65254 l 16.77509,-0.0475 16.77509,-0.0475 z m 2.32342,0 c 0,-0.63507 -0.0177,-0.65055 -0.74349,-0.65055 -0.72579,0 -0.7435,0.0155 -0.7435,0.65055 0,0.63507 0.0177,0.65056 0.7435,0.65056 0.72579,0 0.74349,-0.0155 0.74349,-0.65056 z m 35.68773,0 v -0.65055 h -17.37918 -17.37918 v 0.65055 0.65056 h 17.37918 17.37918 z M 179.06979,112.50808 V 96.987641 l -16.49629,-0.0475 -16.49628,-0.0475 v 15.615389 15.61539 l 16.49628,-0.0475 16.49629,-0.0475 z m 2.32342,0 V 96.894701 h -0.7435 -0.74349 v 15.613379 15.61338 h 0.74349 0.7435 z m 34.94424,0 V 96.894701 h -17.00744 -17.00743 v 15.613379 15.61338 h 17.00743 17.00744 z m 2.41635,0 V 96.894701 h -0.74349 -0.7435 v 15.613379 15.61338 h 0.7435 0.74349 z m 34.34121,0.0465 -0.0475,-15.566909 -16.77509,-0.0475 -16.77509,-0.0475 v 15.614369 15.61437 h 16.82262 16.82262 z m 2.27589,-0.0465 V 96.894701 h -0.74349 -0.7435 v 15.613379 15.61338 h 0.7435 0.74349 z m 36.05948,0 V 96.894701 h -17.56505 -17.56506 v 15.613379 15.61338 h 17.56506 17.56505 z M 179.06979,95.128901 v -0.55762 h -15.98513 -15.98513 l -0.0583,0.60512 -0.0583,0.60513 16.04345,-0.0475 16.04346,-0.0475 z m 2.32342,0 c 0,-0.63507 -0.0177,-0.65056 -0.7435,-0.65056 -0.72579,0 -0.74349,0.0155 -0.74349,0.65056 0,0.63507 0.0177,0.65056 0.74349,0.65056 0.72579,0 0.7435,-0.0155 0.7435,-0.65056 z m 34.94424,0 v -0.65056 h -17.00744 -17.00743 v 0.65056 0.65056 h 17.00743 17.00744 z m 2.38166,0.0465 c -0.0532,-0.55151 -0.11892,-0.60911 -0.75527,-0.66178 -0.68574,-0.0567 -0.69703,-0.047 -0.69703,0.60409 0,0.64988 0.0136,0.66178 0.75527,0.66178 0.74014,0 0.75411,-0.0121 0.69703,-0.60409 z m 34.38662,0 -0.0583,-0.60409 h -16.72862 -16.72863 l -0.0582,0.60409 -0.0582,0.60409 h 16.84512 16.84511 z m 2.26517,-0.0465 c 0,-0.63507 -0.0177,-0.65056 -0.74349,-0.65056 -0.72579,0 -0.7435,0.0155 -0.7435,0.65056 0,0.63507 0.0177,0.65056 0.7435,0.65056 0.72579,0 0.74349,-0.0155 0.74349,-0.65056 z m 35.02271,0.17732 c 0.0653,-0.26027 0.0695,-0.55302 0.009,-0.65055 -0.0682,-0.11043 -6.5218,-0.17733 -17.10606,-0.17733 h -16.99647 v 0.65056 0.65056 h 16.98728 16.98729 z M 179.06979,80.444881 v -13.01115 l -16.49629,-0.0475 -16.49628,-0.0475 v 13.10609 13.1061 l 16.49628,-0.0475 16.49629,-0.0475 z m 2.32342,0.37175 v -12.73234 h -0.7435 -0.74349 v 12.73234 12.73234 h 0.74349 0.7435 z m 34.94424,-0.37175 v -13.10409 h -17.00744 -17.00743 v 13.10409 13.10409 h 17.00743 17.00744 z m 2.41635,0.37175 v -12.73234 h -0.74349 -0.7435 v 12.73234 12.73234 h 0.7435 0.74349 z m 34.29368,-0.37175 v -13.01115 h -16.72862 -16.72863 l -0.0477,13.05861 -0.0477,13.05861 16.77634,-0.0475 16.77635,-0.0474 z m 2.32342,0.27881 c 0,-12.08966 -0.0186,-12.82542 -0.32528,-12.82781 -0.1789,-0.001 -0.51347,-0.053 -0.74349,-0.11462 l -0.41822,-0.11208 v 12.9399 12.93989 h 0.7435 0.74349 z m 35.96655,-0.27881 v -13.01115 l -17.51859,-0.0474 -17.51859,-0.0474 v 13.10598 13.10599 l 17.51859,-0.0474 17.51859,-0.0474 z"
     id="path306"
     inkscape:connector-curvature="0" />
  <path
     style="opacity:1;fill:#000000;fill-opacity:1;stroke:#666666;stroke-width:1.31853068;stroke-linejoin:round;stroke-miterlimit:4;stroke-dasharray:none;stroke-opacity:1"
     d="m 324.25382,459.25454 -0.30893,-7.62308 -103.83167,-0.268 -103.83166,-0.26798 V 226.61391 2.1323511 h 196.623 196.62305 V 129.88473 257.63711 h -98.8373 -98.83721 v 89.89982 89.89982 h 10.5146 10.5146 v 14.72044 14.72044 h -4.15978 -4.15977 z m -31.57936,-343.82738 -0.27337,-48.630029 -73.86506,-0.26996 -73.86505,-0.26997 v 48.899989 48.89999 h 74.13842 74.13842 z M 501.11591,129.359 V 94.660821 H 406.48451 311.8531 V 129.359 164.05718 h 94.63141 94.6314 z"
     id="path1117"
     inkscape:connector-curvature="0" />
  <path
     style="opacity:1;fill:#000000;fill-opacity:1;stroke:#666666;stroke-width:1.31853068;stroke-linejoin:round;stroke-miterlimit:4;stroke-dasharray:none;stroke-opacity:1"
     d="m 274.00054,525.23365 v -24.70931 h -35.2239 c -22.78163,0 -34.53642,-0.3864 -34.53642,0.29365 0,0.0584 0.11662,2.2378 -0.10207,2.30264 -2.34163,0.69416 -18.25695,-0.49342 -44.221,-0.49342 H 116.28156 V 477.9179 453.2086 h 103.09111 103.09111 l -0.3109,7.0827 -0.31091,7.0827 -10.77746,4.11399 -10.77747,4.11399 v 37.17046 37.17047 h -13.14325 -13.14325 z"
     id="path1119"
     inkscape:connector-curvature="0"
     sodipodi:nodetypes="ccsssscccccccccccccc" />
  <path
     style="opacity:1;fill:#000000;fill-opacity:1;stroke:#666666;stroke-width:1.31853068;stroke-linejoin:round;stroke-miterlimit:4;stroke-dasharray:none;stroke-opacity:1"
     d="m 271.89762,621.96796 v -66.7677 h 14.19471 14.19471 v 66.7677 66.7677 h -14.19471 -14.19471 z"
     id="path1121"
     inkscape:connector-curvature="0" />
  <path
     style="opacity:1;fill:#000000;fill-opacity:1;stroke:#666666;stroke-width:1.31853068;stroke-linejoin:round;stroke-miterlimit:4;stroke-dasharray:none;stroke-opacity:1"
     d="m 116.28156,622.49369 v -66.24197 h 44.16132 44.16131 v 66.24197 66.24197 h -44.16131 -44.16132 z"
     id="path1123"
     inkscape:connector-curvature="0" />
  <path
     style="opacity:1;fill:#000000;fill-opacity:1;stroke:#666666;stroke-width:1.31853068;stroke-linejoin:round;stroke-miterlimit:4;stroke-dasharray:none;stroke-opacity:1"
     d="m 116.28156,529.43949 v -21.55493 h 44.16132 44.16131 v 21.55493 21.55493 h -44.16131 -44.16132 z"
     id="path1127"
     inkscape:connector-curvature="0" />
  <path
     style="opacity:1;fill:#000000;fill-opacity:1;stroke:#666666;stroke-width:0.466171;stroke-linejoin:round;stroke-miterlimit:4;stroke-dasharray:none;stroke-opacity:1"
     d="m 313.0383,279.5633 v -20.26022 h 97.65801 c 55.1544,0 97.5043,0.1403 97.3048,0.32236 -0.1942,0.17729 -13.2757,9.2944 -29.07,20.26022 l -28.7169,19.93786 h -68.588 -68.58791 z"
     id="path1129"
     inkscape:connector-curvature="0" />
  <path
     style="opacity:1;fill:#000000;fill-opacity:1;stroke:#666666;stroke-width:0.93234199;stroke-linejoin:round;stroke-miterlimit:4;stroke-dasharray:none;stroke-opacity:1"
     d="m 301.46433,676.47059 v -12.63508 h 74.72118 74.7212 V 482.53059 301.22568 l 4.3933,-3.0817 c 2.4163,-1.69494 4.591,-3.08171 4.8327,-3.08171 0.2417,0 0.4394,87.99257 0.4394,195.53904 v 195.53903 h -11.2527 c -12.3812,0 -113.65968,1.92966 -134.65805,2.56564 l -13.19703,0.3997 z"
     id="path1131"
     inkscape:connector-curvature="0" />
  <path
     style="opacity:1;fill:#cccccc;fill-opacity:1;stroke:#666666;stroke-width:0.466171;stroke-linejoin:round;stroke-miterlimit:4;stroke-dasharray:none;stroke-opacity:1"
     d="m 378.70501,544.22798 v -36.94796 l 7.5278,-0.22362 c 4.1404,-0.12299 11.6683,-0.32748 16.7287,-0.45443 l 9.2007,-0.23081 v 37.40238 37.40239 h -16.7286 -16.7286 z"
     id="path1135"
     inkscape:connector-curvature="0" />
  <path
     style="opacity:1;fill:#cccccc;fill-opacity:1;stroke:#666666;stroke-width:0.466171;stroke-linejoin:round;stroke-miterlimit:4;stroke-dasharray:none;stroke-opacity:1"
     d="m 378.70501,468.9564 v -36.8511 h 16.7286 16.7286 v 36.38755 36.38755 l -2.6952,0.21963 c -1.4823,0.12079 -9.0102,0.32939 -16.7286,0.46355 l -14.0334,0.24392 z"
     id="path1137"
     inkscape:connector-curvature="0" />
  <path
     style="opacity:1;fill:#cccccc;fill-opacity:1;stroke:#666666;stroke-width:0.466171;stroke-linejoin:round;stroke-miterlimit:4;stroke-dasharray:none;stroke-opacity:1"
     d="M 343.38901,469.32978 V 432.1053 h 16.9145 16.9145 v 36.77792 c 0,34.70734 -0.037,36.78848 -0.6506,36.9654 -0.3578,0.10311 -7.9693,0.30406 -16.9145,0.44655 l -16.2639,0.25909 z"
     id="path1139"
     inkscape:connector-curvature="0" />
  <path
     style="opacity:1;fill:#cccccc;fill-opacity:1;stroke:#666666;stroke-width:0.466171;stroke-linejoin:round;stroke-miterlimit:4;stroke-dasharray:none;stroke-opacity:1"
     d="m 343.38901,544.60444 v -36.57149 l 9.9442,-0.23416 c 5.4693,-0.12879 13.0809,-0.33594 16.9145,-0.46033 l 6.9703,-0.22616 v 37.03181 37.03182 h -16.9145 -16.9145 z"
     id="path1141"
     inkscape:connector-curvature="0" />
  <path
     style="opacity:1;fill:#cccccc;fill-opacity:1;stroke:#666666;stroke-width:0.466171;stroke-linejoin:round;stroke-miterlimit:4;stroke-dasharray:none;stroke-opacity:1"
     d="m 413.64921,543.62946 v -37.17472 h 18.0297 18.0298 v 37.17472 37.17472 h -18.0298 -18.0297 z"
     id="path1143"
     inkscape:connector-curvature="0" />
  <path
     style="opacity:1;fill:#cccccc;fill-opacity:1;stroke:#666666;stroke-width:0.466171;stroke-linejoin:round;stroke-miterlimit:4;stroke-dasharray:none;stroke-opacity:1"
     d="m 413.64921,468.35065 v -36.6171 h 18.0297 18.0298 v 36.6171 36.6171 h -18.0298 -18.0297 z"
     id="path1145"
     inkscape:connector-curvature="0" />
  <path
     style="opacity:1;fill:#cccccc;fill-opacity:1;stroke:#666666;stroke-width:0.466171;stroke-linejoin:round;stroke-miterlimit:4;stroke-dasharray:none;stroke-opacity:1"
     d="m 413.64921,387.6815 v -36.98884 h 18.0297 18.0298 v 36.98884 36.98885 h -18.0298 -18.0297 z"
     id="path1147"
     inkscape:connector-curvature="0" />
  <path
     style="opacity:1;fill:#cccccc;fill-opacity:1;stroke:#666666;stroke-width:0.466171;stroke-linejoin:round;stroke-miterlimit:4;stroke-dasharray:none;stroke-opacity:1"
     d="m 378.70501,388.08975 v -36.5806 l 2.1375,-0.2106 c 1.1757,-0.11584 8.7035,-0.31857 16.7286,-0.45052 l 14.5911,-0.2399 v 37.03111 37.03111 h -16.7286 -16.7286 z"
     id="path1149"
     inkscape:connector-curvature="0" />
  <path
     style="opacity:1;fill:#cccccc;fill-opacity:1;stroke:#666666;stroke-width:0.466171;stroke-linejoin:round;stroke-miterlimit:4;stroke-dasharray:none;stroke-opacity:1"
     d="m 343.38901,388.46646 v -36.20389 l 4.7398,-0.22291 c 2.6068,-0.1226 10.2184,-0.32914 16.9144,-0.45898 l 12.1748,-0.23606 v 36.66286 36.66287 h -16.9145 -16.9145 z"
     id="path1151"
     inkscape:connector-curvature="0" />
  <path
     style="opacity:1;fill:#cccccc;fill-opacity:1;stroke:#666666;stroke-width:0.466171;stroke-linejoin:round;stroke-miterlimit:4;stroke-dasharray:none;stroke-opacity:1"
     d="m 301.38155,493.88716 v -12.93932 l 15.89219,-6.20814 c 8.74071,-3.41448 16.1013,-6.20703 16.35688,-6.20566 0.36466,0.002 0.46468,-3.47822 0.46468,-16.16852 v -16.171 h -10.59479 -10.5948 v -42.00744 -42.00743 h 14.68402 14.68398 v 77.32342 77.32342 h -20.44606 -20.4461 z"
     id="path1153"
     inkscape:connector-curvature="0" />
  <path
     style="opacity:1;fill:#cccccc;fill-opacity:1;stroke:#666666;stroke-width:0.466171;stroke-linejoin:round;stroke-miterlimit:4;stroke-dasharray:none;stroke-opacity:1"
     d="m 343.38901,625.22797 v -36.98884 h 16.9145 16.9145 v 36.98884 36.98885 h -16.9145 -16.9145 z"
     id="path1157"
     inkscape:connector-curvature="0" />
  <path
     style="opacity:1;fill:#cccccc;fill-opacity:1;stroke:#666666;stroke-width:0.466171;stroke-linejoin:round;stroke-miterlimit:4;stroke-dasharray:none;stroke-opacity:1"
     d="m 378.70501,625.22797 v -36.98884 h 16.7286 16.7286 v 36.83023 c 0,34.8763 0.034,36.82358 0.6506,36.70496 0.6135,-0.11815 0.6559,-2.2119 0.7453,-36.83023 l 0.095,-36.70496 h 18.028 18.0279 v 36.98884 36.98885 h -35.5019 -35.5018 z"
     id="path1159"
     inkscape:connector-curvature="0" />
  <path
     style="opacity:1;fill:#000000;fill-opacity:1;stroke:#666666;stroke-width:0.466171;stroke-linejoin:round;stroke-miterlimit:4;stroke-dasharray:none;stroke-opacity:1"
     d="m 413.47641,661.19452 c 0.1532,-0.35781 0.3592,-16.83551 0.4577,-36.6171 l 0.1791,-35.96655 h 17.6119 17.6118 v 36.6171 36.6171 h -18.0695 c -17.0673,0 -18.054,-0.0361 -17.791,-0.65055 z"
     id="path1161"
     inkscape:connector-curvature="0" />
  <path
     style="opacity:1;fill:#000000;fill-opacity:1;stroke:#666666;stroke-width:0.32963267;stroke-linejoin:round;stroke-miterlimit:4;stroke-dasharray:none;stroke-opacity:1"
     d="m 301.45622,478.10434 0.003,-1.24861 10.8788,-4.14899 10.87881,-4.14899 2.96093,0.0746 2.96094,0.0746 -13.64524,5.32408 c -7.50487,2.92825 -13.73394,5.3236 -13.84237,5.32302 -0.10844,-5.9e-4 -0.19597,-0.56294 -0.19451,-1.24967 z"
     id="path1163"
     inkscape:connector-curvature="0" />
  <path
     style="opacity:1;fill:#000000;fill-opacity:1;stroke:#666666;stroke-width:0.32963267;stroke-linejoin:round;stroke-miterlimit:4;stroke-dasharray:none;stroke-opacity:1"
     d="m 323.55499,463.69057 c 0.0126,-0.30622 0.0749,-0.36851 0.15881,-0.15881 0.0759,0.18975 0.0666,0.41648 -0.0208,0.50382 -0.0873,0.0874 -0.14948,-0.0679 -0.13806,-0.34501 z"
     id="path1165"
     inkscape:connector-curvature="0" />
  <path
     style="opacity:1;fill:#000000;fill-opacity:1;stroke:#666666;stroke-width:0.01456784;stroke-linejoin:round;stroke-miterlimit:4;stroke-dasharray:none;stroke-opacity:1"
     d="m 323.47711,460.36526 c 0,-2.53198 0.002,-2.93955 0.0165,-2.93955 0.0118,0 0.0184,0.0207 0.023,0.0726 0.004,0.0399 0.0562,1.32464 0.11688,2.8549 0.0607,1.53026 0.11285,2.81461 0.11588,2.8541 l 0.006,0.0718 -0.0398,-0.0166 c -0.0639,-0.0267 -0.14425,-0.0214 -0.19465,0.0128 l -0.0434,0.0295 z"
     id="path1171"
     inkscape:connector-curvature="0" />
  <path
     style="opacity:1;fill:#000000;fill-opacity:1;stroke:#666666;stroke-width:0.01456784;stroke-linejoin:round;stroke-miterlimit:4;stroke-dasharray:none;stroke-opacity:1"
     d="m 323.47711,465.80769 v -1.6552 l 0.0504,0.0355 c 0.0643,0.0453 0.15727,0.0505 0.22193,0.0123 l 0.0413,-0.0244 v 0.0348 c 0,0.0711 0.10359,2.61055 0.10991,2.69442 0.016,0.21231 0.10585,0.38361 0.26287,0.50123 0.0346,0.0259 0.065,0.0492 0.0677,0.0517 0.003,0.003 -0.16593,0.005 -0.37465,0.005 h -0.37949 z"
     id="path1173"
     inkscape:connector-curvature="0" />
  <path
     style="fill:none;stroke:#000000;stroke-width:1.00235128px;stroke-linecap:butt;stroke-linejoin:miter;stroke-opacity:1"
     d="M 113.23676,0.48198111 2.2241866,64.274791 V 689.85059"
     id="path1177"
     inkscape:connector-curvature="0"
     sodipodi:nodetypes="ccc" />
  <path
     style="fill:none;stroke:#000000;stroke-width:1px;stroke-linecap:butt;stroke-linejoin:miter;stroke-opacity:1"
     d="M 114.99453,689.74887 H 2.0940366"
     id="path1181"
     inkscape:connector-curvature="0" />
  <path
     style="opacity:1;fill:#cccccc;fill-opacity:1;stroke:#666666;stroke-width:1.86468399;stroke-linejoin:round;stroke-miterlimit:4;stroke-dasharray:none;stroke-opacity:1"
     d="M 2.7823766,376.63386 V 65.341151 L 57.606747,33.882931 C 87.760157,16.580911 112.85299,2.4247111 113.36861,2.4247111 c 0.51562,0 0.9348,154.2379189 0.93152,342.7509289 l -0.006,342.75093 H 58.538237 2.7823466 Z"
     id="path1197"
     inkscape:connector-curvature="0" />
  <path
     style="opacity:1;fill:#cccccc;fill-opacity:1;stroke:#808080;stroke-width:0.48918879;stroke-linejoin:round;stroke-miterlimit:4;stroke-dasharray:none;stroke-opacity:1"
     d="m 413.36541,662.06706 c -0.8551,-0.15425 -0.9207,-0.31454 -0.7159,-1.75392 0.1239,-0.87127 0.3481,-17.4504 0.498,-36.84253 l 0.2727,-35.25839 h 18.5577 18.5579 v 37.06409 37.06408 l -18.1146,-0.0518 c -9.963,-0.0284 -18.5381,-0.12818 -19.0558,-0.22156 z"
     id="path1199"
     inkscape:connector-curvature="0" />
  <path
     style="opacity:1;fill:#000000;fill-opacity:1;stroke:#808080;stroke-width:1.86468399;stroke-linejoin:round;stroke-miterlimit:4;stroke-dasharray:none;stroke-opacity:1"
     d="M 4.9425466,376.0652 5.3177966,65.745961 31.340097,50.699931 c 14.31227,-8.27532 38.48463,-22.10876 53.71636,-30.74097 L 112.75051,4.2640111 113.01942,345.32424 113.28833,686.38446 H 58.927817 4.5672966 Z"
     id="path1201"
     inkscape:connector-curvature="0" />
  <path
     style="fill:none;stroke:#000000;stroke-width:1px;stroke-linecap:butt;stroke-linejoin:miter;stroke-opacity:1"
     d="m 500.24691,95.730201 -7.8052,4.25497 V 155.69554 H 319.25622 l -6.87732,6.87732 m 180.74691,-62.43013 -4.4103,-4.387039"
     id="path1203"
     inkscape:connector-curvature="0"
     sodipodi:nodetypes="ccccccc" />
  <path
     style="fill:none;stroke:#000000;stroke-width:1px;stroke-linecap:butt;stroke-linejoin:miter;stroke-opacity:1"
     d="m 319.25622,155.69554 h -7.11295"
     id="path1219"
     inkscape:connector-curvature="0" />
  <path
     style="opacity:1;fill:#000000;fill-opacity:1;stroke:#808080;stroke-width:0.2330855;stroke-linejoin:round;stroke-miterlimit:4;stroke-dasharray:none;stroke-opacity:1"
     d="m 316.25926,159.51879 3.15556,-3.15965 86.80519,-0.0467 86.8052,-0.0467 0.047,-27.98766 0.047,-27.98765 1.8117,-0.987409 c 0.9964,-0.54308 2.418,-1.31818 3.1592,-1.72246 l 1.3476,-0.73504 v 32.916429 32.91643 h -93.1671 -93.1671 z"
     id="path1221"
     inkscape:connector-curvature="0" />
  <path
     style="opacity:1;fill:#000000;fill-opacity:1;stroke:#808080;stroke-width:0.2330855;stroke-linejoin:round;stroke-miterlimit:4;stroke-dasharray:none;stroke-opacity:1"
     d="m 313.00667,158.68216 v -2.32342 h 2.3671 2.3671 l -2.31784,2.32342 c -1.27481,1.27788 -2.34001,2.32342 -2.3671,2.32342 -0.0271,0 -0.0493,-1.04554 -0.0493,-2.32342 z"
     id="path1223"
     inkscape:connector-curvature="0" />
  <path
     style="opacity:1;fill:#000000;fill-opacity:1;stroke:#808080;stroke-width:0.32963267;stroke-linejoin:round;stroke-miterlimit:4;stroke-dasharray:none;stroke-opacity:1"
     d=""
     id="path1229"
     inkscape:connector-curvature="0" />
  <path
     style="opacity:1;fill:#000000;fill-opacity:1;stroke:#808080;stroke-width:0.04120408;stroke-linejoin:round;stroke-miterlimit:4;stroke-dasharray:none;stroke-opacity:1"
     d="m 491.17241,97.468941 -1.6919,-1.69219 4.7971,10e-4 c 2.6677,5.5e-4 4.7753,0.0135 4.7479,0.0291 -0.1184,0.0674 -6.15,3.35433 -6.1553,3.35433 0,0 -0.7672,-0.76148 -1.6978,-1.69219 z"
     id="path1233"
     inkscape:connector-curvature="0" />
  <path
     style="fill:none;stroke:#000000;stroke-width:1px;stroke-linecap:butt;stroke-linejoin:miter;stroke-opacity:1;fill-opacity:1"
     d="m 337.99816,662.01768 0.0312,-150.83887 h -34.2007 v 150.90137"
     id="path1235"
     inkscape:connector-curvature="0"
     sodipodi:nodetypes="cccc" />
  <path
     style="opacity:1;fill:#000000;fill-opacity:1;stroke:#808080;stroke-width:0.02060204;stroke-linejoin:round;stroke-miterlimit:4;stroke-dasharray:none;stroke-opacity:1"
     d="m 460.65321,296.23849 c -0.015,-0.80815 -0.036,-1.2274 -0.065,-1.29627 -0.014,-0.0328 -0.089,-0.097 -0.2312,-0.19763 -0.1689,-0.11962 -0.2218,-0.149 -0.2682,-0.149 -0.082,0 -0.2866,0.0719 -0.448,0.15745 -0.076,0.0402 -0.1404,0.0707 -0.1434,0.0677 0,-0.003 0.2576,-0.1884 0.5792,-0.41196 0.3217,-0.22356 0.5877,-0.40355 0.5913,-0.39998 0,0.004 0,0.66382 0,1.46722 0,1.36536 -0.01,1.41514 -0.017,0.76249 z"
     id="path1251"
     inkscape:connector-curvature="0" />
  <path
     style="opacity:1;fill:#000000;fill-opacity:1;stroke:#808080;stroke-width:0.00489844;stroke-linejoin:round;stroke-miterlimit:4;stroke-dasharray:none;stroke-opacity:1"
     d="m 460.67771,298.16447 c -10e-5,-0.10331 -0.01,-0.56629 -0.016,-1.19465 v -0.30695 l 0.01,-0.008 c 0,-0.005 0.01,-0.0124 0.01,-0.0173 4e-4,-0.005 0,-0.2417 0,-0.52637 0,-0.39941 0,-0.21189 0,0.82129 4e-4,0.73637 -1e-4,1.33886 0,1.33886 -0.001,0 0,-0.0479 0,-0.10644 z"
     id="path1253"
     inkscape:connector-curvature="0" />
  <path
     style="opacity:1;fill:#000000;fill-opacity:1;stroke:#808080;stroke-width:0.00489844;stroke-linejoin:round;stroke-miterlimit:4;stroke-dasharray:none;stroke-opacity:1"
     d="m 459.28541,294.95105 c 0.01,-0.006 0.1964,-0.13717 0.1987,-0.13717 0,0 0,0.003 0,0.007 0,0.004 0,0.009 0.01,0.01 0.01,0.002 6e-4,0.006 -0.019,0.0166 -0.014,0.008 -0.062,0.0349 -0.1064,0.0603 -0.075,0.0429 -0.092,0.0518 -0.083,0.0428 z"
     id="path1255"
     inkscape:connector-curvature="0" />
  <path
     style="opacity:1;fill:#000000;fill-opacity:1;stroke:#808080;stroke-width:0.00489844;stroke-linejoin:round;stroke-miterlimit:4;stroke-dasharray:none;stroke-opacity:1"
     d=""
     id="path1257"
     inkscape:connector-curvature="0" />
  <path
     style="opacity:1;fill:#000000;fill-opacity:1;stroke:#808080;stroke-width:0.00489844;stroke-linejoin:round;stroke-miterlimit:4;stroke-dasharray:none;stroke-opacity:1"
     d=""
     id="path1259"
     inkscape:connector-curvature="0" />
  <path
     style="opacity:1;fill:#ff0000;fill-opacity:1;stroke:none;stroke-width:0.01959375;stroke-linejoin:round;stroke-miterlimit:4;stroke-dasharray:none;stroke-opacity:1"
     d="m 205.26896,502.32557 v -0.8125 h 7.98437 7.98438 v 0.0703 0.0703 h -7.90625 -7.90625 v 0.74219 0.74218 h -0.0781 -0.0781 z"
     id="path1261"
     inkscape:connector-curvature="0" />
  <path
     style="opacity:1;fill:#ff0000;fill-opacity:1;stroke:#808080;stroke-width:0.02770975;stroke-linejoin:round;stroke-miterlimit:4;stroke-dasharray:none;stroke-opacity:1"
     d="m 205.44399,502.39639 v -0.7292 h 15.78836 15.78837 v 0.7292 0.72921 h -15.78837 -15.78836 z"
     id="path1263"
     inkscape:connector-curvature="0" />
  <path
     style="opacity:1;fill:#ff0000;fill-opacity:1;stroke:none;stroke-width:0.00489844;stroke-linejoin:round;stroke-miterlimit:4;stroke-dasharray:none;stroke-opacity:1"
     d="m 221.24041,501.58352 v -0.0684 h 1.55859 1.55859 v 0.0684 0.0684 h -1.55859 -1.55859 z"
     id="path1267"
     inkscape:connector-curvature="0" />
  <path
     style="opacity:1;fill:#ff0000;fill-opacity:1;stroke:none;stroke-width:0.00489844;stroke-linejoin:round;stroke-miterlimit:4;stroke-dasharray:none;stroke-opacity:1"
     d="m 224.35759,501.58352 v -0.0684 h 2.33204 2.33203 v 0.0684 0.0684 h -2.33203 -2.33204 z"
     id="path1269"
     inkscape:connector-curvature="0" />
  <path
     style="opacity:1;fill:#ff0000;fill-opacity:1;stroke:none;stroke-width:0.00489844;stroke-linejoin:round;stroke-miterlimit:4;stroke-dasharray:none;stroke-opacity:1"
     d="m 229.02166,501.58352 v -0.0684 h 2.8125 2.8125 v 0.0684 0.0684 h -2.8125 -2.8125 z"
     id="path1271"
     inkscape:connector-curvature="0" />
  <path
     style="opacity:1;fill:#ff0000;fill-opacity:1;stroke:none;stroke-width:0.00489844;stroke-linejoin:round;stroke-miterlimit:4;stroke-dasharray:none;stroke-opacity:1"
     d="m 235.83904,501.65285 -1.19238,-9.9e-4 v -0.0684 -0.0684 h 2.25195 2.25195 v 0.0703 0.0703 l -1.05957,-9.7e-4 c -0.58276,-5.3e-4 -1.59614,-0.001 -2.25195,-0.002 z"
     id="path1273"
     inkscape:connector-curvature="0" />
  <path
     style="opacity:1;fill:#ff0000;fill-opacity:1;stroke:none;stroke-width:0.00979687;stroke-linejoin:round;stroke-miterlimit:4;stroke-dasharray:none;stroke-opacity:1"
     d="m 239.15493,501.582 v -0.0703 h 6.65235 6.65234 v 0.0703 0.0703 h -6.65234 -6.65235 z"
     id="path1275"
     inkscape:connector-curvature="0" />
  <path
     style="opacity:1;fill:#ff0000;fill-opacity:1;stroke:none;stroke-width:0.01904049;stroke-linejoin:round;stroke-miterlimit:4;stroke-dasharray:none;stroke-opacity:1"
     d="m 252.45962,501.582 v -0.0703 h 10.26953 10.26953 v 0.0703 0.0703 h -10.26953 -10.26953 z"
     id="path1277"
     inkscape:connector-curvature="0" />
  <path
     style="opacity:1;fill:#000000;fill-opacity:1;stroke:none;stroke-width:0.02770975;stroke-linejoin:round;stroke-miterlimit:4;stroke-dasharray:none;stroke-opacity:1"
     d="m 115.49683,561.06883 v -5.80049 h 19.55592 19.55592 v 0.15462 0.15462 l -19.24103,0.006 -19.24104,0.006 -0.11267,0.051 c -0.14047,0.0636 -0.27841,0.20232 -0.34479,0.34675 l -0.0508,0.11049 -0.006,5.38616 -0.006,5.38616 h -0.055 -0.055 z"
     id="path1279"
     inkscape:connector-curvature="0" />
  <path
     style="opacity:1;fill:#000000;fill-opacity:1;stroke:none;stroke-width:0.03514053;stroke-linejoin:round;stroke-miterlimit:4;stroke-dasharray:none;stroke-opacity:1"
     d="m 154.61795,555.42758 v -0.14363 h 25.03615 25.03615 v 0.14363 0.14363 H 179.6541 154.61795 Z"
     id="path1281"
     inkscape:connector-curvature="0" />
  <path
     style="fill:none;stroke:#000000;stroke-width:1px;stroke-linecap:butt;stroke-linejoin:miter;stroke-opacity:1"
     d="m 205.28125,686.21875 65.65116,-0.0716"
     id="path1285"
     inkscape:connector-curvature="0"
     sodipodi:nodetypes="cc" />
  <path
     style="opacity:1;fill:#000000;fill-opacity:1;stroke:none;stroke-width:0.16660751;stroke-linejoin:round;stroke-miterlimit:4;stroke-dasharray:none;stroke-opacity:1"
     d="m 205.52891,687.9688 v -1.40468 h 32.29609 32.29609 v 1.40468 1.40468 H 237.825 205.52891 Z"
     id="path1287"
     inkscape:connector-curvature="0" />
  <path
     style="fill:none;stroke:#000000;stroke-width:1px;stroke-linecap:butt;stroke-linejoin:miter;stroke-opacity:1"
     d="m 303.96753,661.51643 h 33.80854"
     id="path1289"
     inkscape:connector-curvature="0" />
  <path
     style="opacity:1;fill:#cccccc;fill-opacity:1;stroke:none;stroke-width:0.22167796;stroke-linejoin:round;stroke-miterlimit:4;stroke-dasharray:none;stroke-opacity:1"
     d="m 301.35465,577.65908 v -69.8268 h 20.5061 20.50609 v 69.8268 69.82679 h -1.85615 -1.85616 v -68.41258 -68.41258 h -17.67767 -17.67767 v 68.41258 68.41258 h -0.97227 -0.97227 z"
     id="path1311"
     inkscape:connector-curvature="0" />
  <path
     style="opacity:1;fill:#cccccc;fill-opacity:1;stroke:none;stroke-width:0.078375;stroke-linejoin:round;stroke-miterlimit:4;stroke-dasharray:none;stroke-opacity:1"
     d="m 301.40442,654.87405 v -7.375 h 0.9375 0.9375 v 7.32215 7.32214 l 0.79687,-0.0406 c 0.43828,-0.0224 8.36953,-0.0408 17.625,-0.0409 l 16.82813,-2.6e-4 V 646.3428 c 0,-10.4375 0.021,-15.71875 0.0625,-15.71875 0.0414,0 0.0625,2.85417 0.0625,8.4375 v 8.4375 h 1.84375 1.84375 v 7.375 7.375 h -20.46875 -20.46875 z"
     id="path1313"
     inkscape:connector-curvature="0" />
</svg>
